<svg xmlns="http://www.w3.org/2000/svg" viewBox="0 0 633.69 437.32"><defs><style>.cls-1{fill:#0467fc;}.cls-2{fill:#ca668b;}.cls-3{fill:#96c996;}.cls-4{fill:#ccf95f;}.cls-5{fill:#34320c;}.cls-6{fill:#f4130f;}.cls-7{fill:#666503;}.cls-8{fill:#66f836;}.cls-9{fill:#caca97;}.cls-10{fill:#9899fe;}.cls-11{font-size:12px;font-family:AvenirLTPro-BlackOblique, Avenir LT Pro;font-weight:800;font-style:oblique;}.cls-12{letter-spacing:-0.06em;}.cls-13{letter-spacing:0em;}</style></defs><title>carte-centre</title><g id="Calque_2" data-name="Calque 2"><g id="Calque_2-2" data-name="Calque 2"><path id="Mefou_et_Afamba" data-name="Mefou et Afamba" class="cls-1" d="M256.58,269.75l14.16-16.08v-10.8L276,241l7.44-21.6v-9.12l-8.4-8.64,2.4-5.28V175.67l2.4-4.32L262.1,152.63l-6,.82-9.37,2.06v7.68l-10.08.48L234.74,181l5,4-.24,5.52-2,1.8-2.76,1.32-3.48-.12-7.92-7.56-4-1.68v-4.08l-4.8-.36v6.84L203.66,197v1.8l-2.88-.63-1.44-2.7-7.2.81-3.6,4v8.64H181l-1.8,2.28v7.08l2.16,1.44,3.6-3.24,6.12-.36,1.8.72-1.44,5.4-1.8,1.44-2.16,1.8-1.08,1.8-1.08,3.6-.36,5,.36,3.24,5,2.16,6.84,3.24,7.2.36,6.84-2.16v-3.6l5.76.72,6.84,1.08,1.08-13,2.88-1.08,5,.36,3.24,2.88,1.08,2.52v6.84l-1.8,4.68-1.08,4.32,5,.72S253,264,252.62,268Z"/><polygon id="Lekie" class="cls-2" points="276.02 240.95 279.62 239.75 291.38 239.75 296.66 244.79 299.37 246.13 302.18 247.91 303.73 250.02 307.84 251.24 311.54 251.51 312.98 251.51 312.98 256.55 311.78 260.15 310.34 262.79 308.66 264.71 305.54 269.75 303.62 271.43 302.18 272.87 300.98 276.47 300.02 278.87 300.02 286.55 298.1 288.23 295.7 290.87 294.5 293.03 291.62 295.43 289.46 295.43 288.5 297.35 287.3 297.35 286.1 299.51 280.34 299.51 277.94 299.51 274.72 301.37 272.38 300.8 271.94 301.91 271.94 304.07 271.94 305.51 272.06 307.91 271.39 309.59 268.34 309.59 266.66 305.27 266.66 300.23 266.66 294.95 264.74 290.87 264.74 287.99 264.74 284.15 262.34 279.83 260.66 276.47 258.5 272.63 256.58 269.75 259.46 265.19 263.06 262.07 265.7 259.43 269.26 255.35 270.74 253.19 270.74 247.43 270.74 242.87 276.02 240.95"/><polygon id="Nyog_et_kelle" data-name="Nyog et kelle" class="cls-3" points="253.22 271.19 251.06 274.67 248.9 274.67 246.74 276.71 244.58 276.71 242.66 277.91 239.06 277.91 234.02 277.91 231.32 279.11 228.74 280.79 226.58 282.23 222.02 282.23 218.9 283.67 217.7 287.03 217.7 291.35 217.7 294.47 218.9 297.59 219.14 300.95 218.9 304.55 217.7 308.39 215.3 311.03 215.3 312.71 212.18 311.75 210.74 307.67 209.06 306.23 206.66 307.43 204.74 307.67 201.86 307.67 199.7 306.71 196.82 305.75 194.42 303.59 192.74 303.35 190.1 305.51 191.06 307.43 192.02 309.59 192.02 312.71 191.06 314.87 190.1 318.71 190.1 320.15 191.3 322.55 190.1 322.55 186.5 322.55 186.5 326.63 188.66 328.07 190.82 328.07 189.62 330.23 189.62 332.15 186.5 332.15 185.54 333.35 184.34 336.23 184.34 338.87 184.34 340.79 186.5 343.91 188.9 346.31 190.34 348.23 190.34 349.91 195.62 349.91 198.02 349.91 198.98 347.27 201.14 346.07 203.3 344.39 205.46 345.35 207.62 346.31 214.58 346.07 216.5 344.39 221.06 344.15 223.22 343.91 224.66 342.47 225.14 339.35 228.02 339.11 231.32 337.91 234.98 337.67 237.62 340.79 239.78 343.43 242.42 345.35 244.82 345.35 247.46 345.11 248.42 343.67 250.34 343.43 250.82 345.59 251.78 347.51 253.22 348.71 254.66 347.27 256.58 344.87 258.98 344.39 260.9 342.71 262.82 341.99 262.82 340.79 267.38 340.67 271.25 340.67 271.46 338.63 271.46 335.99 271.46 331.67 271.46 328.79 271.46 325.91 271.57 323.51 271.46 319.91 271.46 316.79 271.46 312.71 271.46 309.59 268.34 309.59 267.59 307.66 266.66 305.27 266.66 301.43 266.66 294.95 265.81 293.15 264.74 290.87 264.74 288.2 264.74 284.15 263.56 282.03 262.34 279.83 261.22 277.58 260.42 274.67 258.06 271.98 256.58 269.75 253.22 271.19"/><path id="Mefou_et_akono" data-name="Mefou et akono" class="cls-4" d="M272.11,300.5l-.3,2.31.13,3.51.12,1.59-.67,1.68-.05,2.76.05,7.33.06,3.56v5.88l-.12,5.76v3.39l-.09,2.4,2.89,1.49,2.72,1.63,2.28,2.28,1.38,1.26,1.5,1.26.3,1.32h1.26l1.2.72h3.36l2.16-1.2.69-1,.51-.64,1.67-.51-.23-2.79-1.26-1.08a24.87,24.87,0,0,1-.61-3c0-.6.07-7.11.07-7.11l2.11.13.29-1.87,1-1.68v-1.44l.84-2.64.84,1.68,1.32,1.32,1.8-.24.6-3.05-1.2-3.79v-6.24l-.36-1.44H297a10.64,10.64,0,0,0-2.16,1.56c-.12.36-1.92,1.32-1.92,1.32s-1,.07-1.38.07a4,4,0,0,1-1.08-.31l-1.26-.48-2.28-.24-.36-3,.48-2.38.36-2.76-1.56-.24-3-1.45L280,304.79l-2.88-1.32-1-1.8Z"/><path id="Nyong_et_so_o" data-name="Nyong et so&apos;o" class="cls-5" d="M271.34,340.67H265.1l-2.22.18-.86,1.44-1.12.42-1.62,1.38v4.5l1.08,2,1.44,2.28,1.26,2.7.9,2.16.54,2.34.81,1.62,1.35,2.7,3.42,1.8,1.26,1.62v5l2.88.72H293.3v-2h2.16l3.84-.18v-.9h3.36l2-1.26,2.16-.18,2.16-2.52a4.08,4.08,0,0,1,1.26-1.08c.54-.18.72-.9,1.62-.9a14.34,14.34,0,0,0,2-.18l1.44-1.08H318v-1.44l1.26-1.62,2.88-.18-.9-1.08-1.44-.36s-.18,0-.18-1.53v-2.25c0-.54,1.44-1.62,1.44-1.62l.36-.9.72-1.08,1.26-.66H325l2.7,1.2,2.16.36,1.08.36V335.63l.72-1.26h4.86V332l1.44-1.26h1.62l3.06-1.26v-5.94l1.08-3.6v-4l-.9-2.34-1.8-3.12-1.44-1.92-3.42-1.08-4.68-1.62H326.6a9.61,9.61,0,0,1-4,1.26L321,308.63l-2.34,1.92s.18-.3-1.08.78l-1.26,1.08v4.5l-.36,2.16,2.16.9.72,1.26,0,3.25-.58,3.23-1.08,1.8-3.06-.18-2.88-2.16-1.62.54h-8.19l-1.24.5-.95.34-1.19.16-1.62-.93-.13-.79-1-1.2-.66,2.07-.18.57-.16,1.71-.86,1.35-.18,1.62-1.26.18h-.9l-.72,4.68.72,3.24.54,2.16,1.26,1.08v2.16c0,1.08-1.44,1.14-1.44,1.14l-1.2,1.53a12.49,12.49,0,0,0-2.22.63h-5.76s-.13-1.32-.36-1.5a8.14,8.14,0,0,1-1.44-1.08l-1.08-1.44-1.26-1.44L276,343l-1.62-.72-1.44-.72Z"/><polyline id="Mfoundi" class="cls-6" points="279.15 304.41 278.14 303.94 277.1 303.47 274.89 301.27 276.07 300.59 277.46 299.27 284.78 299.51 286.23 299.27 287.3 297.35 288.38 297.23 289.46 295.43 291.3 295.43 291.62 295.31 292.58 294.71 292.82 292.91 294.02 292.07 294.98 290.99 295.58 289.43 298.34 288.23 298.34 290.51 298.34 293.15 299.3 295.19 300.14 295.43 300.74 296.51 300.74 298.43 300.74 299.51 302.06 299.51 302.06 300.95 302.06 303.59 302.06 305.93 302.06 307.79 300.5 309.59 299.5 311.45 299.24 313.28 298.34 314.03 297.02 314.03 295.59 314.94 295.13 315.42 294.55 315.91 292.18 317.4 290.78 316.79 289.22 316.19 288.38 316.1 286.94 315.95 286.46 314.03 286.7 311.87 286.99 310.88 287.2 309.48 287.34 307.77 285.86 307.55"/><line id="Mfoundi-2" data-name="Mfoundi" class="cls-6" x1="283.32" y1="306.47" x2="283.22" y2="304.91"/><path id="Mefou_et_Afamba-2" data-name="Mefou et Afamba" class="cls-7" d="M298.34,314l.36,2.32v4.17a7.81,7.81,0,0,1,0,1.19,6.72,6.72,0,0,0,.39,1.24l.15,1.16.6,1.2v.6l-.6,2.76,2.4-.84h9.6s1.42.66,1.85.84l1,.78,3.06.18,1.08-1.8.43-1.92.35-3s.56-.25-.18-1.68a9.46,9.46,0,0,0-.72-1.26l-1.81-.76-.05-2.35v-2.79l.6-1.72,1.79-1.72,1.12-.92,1.07-.88,1.66-.8,2.73-1.33,3.39-.71,2.88.48,2.81.45,2.06.71,3.17-5,2.16-2.88,1.92-4h2.64l1-2.16,1.44-2.16.24-1.2,2.16-.48.24-1.44h2.16l.48-1.68,1.2-1.68,1-1.44v-3.84l-1.92-1.44.24-1.44.24-2,1.44-1.56v-3.36l-1.68-1.68-1.68-1.44-1.44-1.2-2.4-1.2H347l-1.44,1.44-1.92,1.2-2.88.24-4.08-1v-1.92l-.24-3.12-1.2-1.68-.72-1.68-2.26-.42-2.06.42-2.52,1.2-.7,1.17-2,1.14-4-2.07-2.82-3.12L315.32,254,313,251.51v5l-1.45,4.05-.85,1.56L309,264l-1,1.61-1,1.56-1.58,2.56-1.64,1.43-1.72,1.69L301.12,276l-1.1,2.83-.06,3.24.06,2.37-1.92,3.75.24,1.29-1,1.41,1,2.22.66,1.4,1.2,2.2.54,2.76,1.26,3.12.06,3v1.62l-.63.26-1,1.68-1.2,2.82Z"/><path id="Nyong_et_Mfoumou" data-name="Nyong et Mfoumou" class="cls-8" d="M336.14,338.69v3.42l.72,1.62h1.8a.75.75,0,0,1,1.08,0l.54.54,1.26,1.62v2.16h8.28l.9-1.26,2.16-.54,1.26.36.36,1.44v1.86l.18,2.1,1.5,1.44,2.28-.18,1.62.18.36,1.08,1.26,1.26h3.06v-16h1.44l.9-2.16,2.52-.18h1.08l.9-1.62,1.8-.72,1.26-.9h3.78v-1.62l1.08-1.08,2.52-.18h1.26l.9-1.8.18-1.8v-4.14l2.88-.18,1.08,1.62,1.26,2,1.26,2,.36,2.34.9,2.52,1.26,1.26,2.16,2.16h1.62l1.26-2.16s.36,1.08.9-1.8l.54-2.88v-2.7l-.18-1.92v-1.5l.18-3.9v-3.6l-2.4-3.36-2.16-1.68-1.2-3.36-.48-2.46-.24-3.42.72-1.56,2.4-1.68,3.36-1.68h8.4v-2.16l2.4-2.64,1.2-2v-2.58l1.68-1.68,2.16-1.44h1.44v-12l1.44-4.8V258l-1.92-4.08-1.2-4.08-1.2-2.4h-19l-1.68,1.92-4.56,1-1.92,1.44-2.88,2.16h-1.92l-1.2,3.12L379.46,259l-2.55,2.88v3.36l-1.77,1.92-1.44,1.2-2.16,2.88-1,1.59-1.62.57-4.08,1.32v3l-3.36,1.2-3.12.24-2.16.48-.72,3.12-.48,2.16-1.2,1.68v1.2l-2.4.48h-1.92l-.48,1.92-.24,1.2-.72,1-1.92,1.44-.48,1.92h-2.07l-.61,1.57-.69,1.41-1.46,2.3L339.22,303l-1,1.31-1.32,1.56-.47,1.76,3.89,2,1,1.44.79,1.42,1.13,2.9.48,1.44V320l-.51,1.71-.57,2.8-.36,2.15-1.68,2.64-1.44,1.44-2.4.72Z"/><polyline id="Haute_sanaga" data-name="Haute sanaga" class="cls-9" points="335.54 214.79 336.93 212.94 338.09 211.33 339.62 205.61 340.1 195.59 340.82 192.23 349.18 193.43 354.29 193.37 356.18 191.99 357.17 187.48 358.1 184.55 362.9 183.59 368.26 181.43 371.02 178.31 372.86 171.83 377.52 168.25 380.75 164.44 383.66 159.95 387.62 154.55 393.97 151.18 399.86 148.63 404.18 146.63 412.46 144.47 415.34 143.03 421.06 142.67 423.98 148.63 428.3 152.63 432.98 155.27 435.86 158.87 440.18 161.75 445.22 166.07 445.22 170.03 445.22 175.79 445.22 181.19 445.22 184.07 447.38 184.07 451.7 184.79 456.02 184.79 461.06 185.15 462.86 185.51 462.86 189.11 462.86 191.27 465.02 192.35 466.46 194.87 466.46 198.11 468.26 201.35 468.26 204.59 468.26 207.13 470.42 207.13 470.42 209.63 470.42 212.87 470.42 216.11 468.98 220.79 467.9 223.67 465.74 225.83 464.66 229.43 458.54 230.15 453.5 229.07 449.9 226.91 447.38 223.31 443.42 218.99 441.62 218.99 439.46 220.79 437.66 223.31 436.22 225.83 433.34 228.71 430.82 231.59 428.66 234.83 427.22 239.75 423.98 245.27 421.82 247.43 414.62 249.23 412 247.43 407.3 247.43 401.2 247.43 397.06 247.39 395.54 248.15 393.74 250.31 391.7 250.31 388.34 251.75 384.26 253.91 382.34 253.91 381.49 256.58 380.42 259.67 377.36 261.32 377.36 265.07 375.14 267.11 374.02 268.19 372.62 269.75 372.14 272.27 369.12 273.23 366.38 274.67 364.82 277.67 360.62 279.11 356.18 279.59 354.26 278.15 354.86 274.07 354.86 269.75 350.54 265.79 348.02 265.79 345.14 266.51 340.48 267.29 336.74 266.15 336.14 262.19 334.34 258.23 331.99 257.75 329.66 258.59 324.98 261.47 321.02 259.31 318.5 257.15 315.18 253.87 312.98 251.51 312.98 242.39 312.98 239.75 317.32 235.02 319.22 230.79 320.84 226.84 321.75 224.5 322.71 222.29 324.98 217.43 333.62 217.67"/><path id="Mbam_et_kim" data-name="Mbam et kim" class="cls-10" d="M418.34,142.67h6.12l4.32-3.6,3.24-.36,3.24-.36h1.8l2.52-3.24,1.8-2.16,3.6-1.8-1.08-3.6L445,124l2.16-1.8V111.71l2.52-4.32v-6.48l-4.32-2.16-2.88-2.52v-4l-1.8-2.52-2.52-3.24H436l-.36-5.76-1.62-4V70.31l-2.7-1.44V66.71L430.94,62l-.36-5V54.47h-5.76l-6.48,1.8-5-1.8h-8.64a5,5,0,0,0-3.6,0l-2.16.72L396.74,57l-3.6-2.84-4-2.2V49.43l-3.24-4.32-3.24-5.4-4-3.24h-3.6v-3.6H361.46l-2.88,3.6-2.52,3.6H350.3L345.62,39l-3.6-1.8-4.68-.36-1.8-1.44L333,32.87h-2.16l-3.6-2.52-4.32,1.8L319,35l-3.24,2.52-3,2.16-3.12,2.16-2.16,1.44-2.88,4v6.12l-2.16,1.44-3.24-.72L294.5,53h-2.16l-2.88,1.8-6.24,1.44-7.08,2.52-2.52,1.08-6.48,1.8-2.52,1.08-1.8,1.8v2.88L261,70.31v16.2L263.54,88l4.68,2.16,1.08,2.52-1.8,1.8h-2.88l-3.6,1.8-1.8,3.24-1.8,2.16-1.08,2.16-3.24,5.4v2.88l2.88,5.4,2.52,3.24,2.16,2.16-4.32,3.24-3.24,3.6v9.72l-1.8,1.44L247,145.19l-4.32,3.44v5.56l3.6,1.44,5.24-1.17,4.48-1,6.28-.67,3.25,3.42,2.79,2.95,3.52,3.66,3.27,3.49,3.12,3.29,1.46,2.08-2.21,4v11.25l-.24,9.39-2.16,4-.36,1.8,3.6,5.06,4.32,2.14.84,4.56v2.64L282.9,221l-2.08,3.91-1.46,6.38L278.18,234,276,238.55V241l2.91-1,5.61-.23,6.84.24s-.15,1.39,2.23,2.11c.14.16,2.67,2.55,2.67,2.55L298.1,246a2.88,2.88,0,0,1,2.64,1.44l1.2,1.68,3.11,1.83,4.33.81,3.6-.24V239.75l2.6-2.84s-.68,4.52,2.44-3.16,1.44-3.36,1.44-3.36l1.68-4.32s.48-1.44,2.16-5l1.68-3.6,2.88.48,4.32-.24h1.44l1.92-2.88,2.52-3.36.84-2.64,1.2-5.28v-7.92l.72-3.36,2.88,1.2h10.08l2.16-.48,1-3.36.48-2.64.72-2.4,4.56-1,3.12-.48,1.68-.72,3.84-3.84,1.68-4.8,1.44-2.4,4.08-4.08,2.88-2.88,2.64-3.84,2.06-3.69,5.37-4.34,4.57-2.29,5.28-1.6,2.64-2,8.64-1.44Z"/><text class="cls-11" transform="translate(245.08 18.65)">MBAM ET KIM</text><rect class="cls-10" x="210.84" width="27.22" height="27.22"/><text class="cls-11" transform="translate(536.11 195.95)">HAUTE SANAGA</text><rect class="cls-9" x="501.87" y="177.3" width="27.22" height="27.22"/><text class="cls-11" transform="translate(483.9 293.27)">NYONG ET MFOUMOU</text><rect class="cls-8" x="449.66" y="274.62" width="27.22" height="27.22"/><text class="cls-11" transform="translate(452.82 355.67)">MEFOU ET A<tspan class="cls-12" x="75.32" y="0">F</tspan><tspan class="cls-13" x="81.78" y="0">AMBA</tspan></text><rect class="cls-7" x="418.58" y="337.02" width="27.22" height="27.22"/><text class="cls-11" transform="translate(360.82 398.49)">NYONG ET SO’O</text><rect class="cls-5" x="326.58" y="379.84" width="27.22" height="27.22"/><text class="cls-11" transform="translate(248.44 428.75)">MEFOU ET AKONO</text><rect class="cls-4" x="214.2" y="410.1" width="27.22" height="27.22"/><text class="cls-11" transform="translate(131.76 274.79)">LEKIE</text><rect class="cls-2" x="97.52" y="256.14" width="27.22" height="27.22"/><text class="cls-11" transform="translate(166 384.88)">MFOUNDI</text><rect class="cls-6" x="131.76" y="366.23" width="27.22" height="27.22"/><text class="cls-11" transform="translate(34.24 334.67)">NYONG ET KELLE</text><rect class="cls-3" y="316.02" width="27.22" height="27.22"/><text class="cls-11" transform="translate(85.38 182.34)">MBAM ET INOUBOU</text><rect class="cls-1" x="51.14" y="163.69" width="27.22" height="27.22"/></g></g></svg>