<svg id="Instagram" xmlns="http://www.w3.org/2000/svg" width="68.096" height="68.057" viewBox="0 0 68.096 68.057">
  <g id="Groupe_512" data-name="Groupe 512" transform="translate(0)">
    <circle id="Ellipse_61" data-name="Ellipse 61" cx="3.993" cy="3.993" r="3.993" transform="translate(48.068 12.183)" fill="#fff"/>
    <path id="Tracé_4095" data-name="Tracé 4095" d="M44.112,27A16.752,16.752,0,1,0,60.864,43.778,16.752,16.752,0,0,0,44.112,27Zm0,27.476a4.446,4.446,0,1,1,0,.026Z" transform="translate(-9.789 -9.723)" fill="#fff"/>
    <path id="Tracé_4096" data-name="Tracé 4096" d="M61.25,81.558H34.106A20.476,20.476,0,0,1,13.63,61.081V33.976A20.476,20.476,0,0,1,34.106,13.5H61.25A20.476,20.476,0,0,1,81.726,33.976V61.133A20.476,20.476,0,0,1,61.25,81.558ZM34.106,19.937A14.077,14.077,0,0,0,20.029,34.015V61.133A14.077,14.077,0,0,0,34.106,75.21H61.25A14.077,14.077,0,0,0,75.327,61.133V33.976A14.077,14.077,0,0,0,61.25,19.9Z" transform="translate(-13.63 -13.5)" fill="#fff"/>
  </g>
</svg>
